HIERARCHY
ROOT SpineBase
{
  OFFSET 0.000000 0.000000 0.000000
  CHANNELS 6 Xposition Yposition Zposition Zrotation Xrotation Yrotation
  JOINT SpineMid
  {
    OFFSET -0.000000 26.679255 0.000000
    CHANNELS 3 Zrotation Xrotation Yrotation
    JOINT SpineShoulder
    {
      OFFSET -0.017846 19.787170 -0.656501
      CHANNELS 3 Zrotation Xrotation Yrotation
      JOINT Neck
      {
        OFFSET -0.012008 6.549760 -0.510225
        CHANNELS 3 Zrotation Xrotation Yrotation
        JOINT Head
        {
          OFFSET -1.879742 12.867863 -1.809580
          CHANNELS 3 Zrotation Xrotation Yrotation
          End Site
          {
            OFFSET 0 0 0
          }
        }
      }
      JOINT ShoulderLeft
      {
        OFFSET -11.899422 -0.884308 9.176206
        CHANNELS 3 Zrotation Xrotation Yrotation
        JOINT ElbowLeft
        {
          OFFSET -2.439138 -14.177582 4.174677
          CHANNELS 3 Zrotation Xrotation Yrotation
          JOINT WristLeft
          {
            OFFSET -3.333781 -1.181744 -20.858668
            CHANNELS 3 Zrotation Xrotation Yrotation
            JOINT HandLeft
            {
              OFFSET 1.934365 -1.574565 -18.613868
              CHANNELS 3 Zrotation Xrotation Yrotation
              JOINT HandTipLeft
              {
                OFFSET -1.581649 1.449248 -3.015955
                CHANNELS 3 Zrotation Xrotation Yrotation
                End Site
                {
                  OFFSET 0 0 0
                }
              }
              JOINT ThumbLeft
              {
                OFFSET -5.239435 0.332785 0.304122
                CHANNELS 3 Zrotation Xrotation Yrotation
                End Site
                {
                  OFFSET 0 0 0
                }
              }
            }
          }
        }
      }
      JOINT ShoulderRight
      {
        OFFSET 11.153660 -3.025852 -11.896678
        CHANNELS 3 Zrotation Xrotation Yrotation
        JOINT ElbowRight
        {
          OFFSET 2.386678 -19.124187 -4.517991
          CHANNELS 3 Zrotation Xrotation Yrotation
          JOINT WristRight
          {
            OFFSET -19.761178 2.327179 -5.342337
            CHANNELS 3 Zrotation Xrotation Yrotation
            JOINT HandRight
            {
              OFFSET -18.062282 3.308382 -2.815997
              CHANNELS 3 Zrotation Xrotation Yrotation
              JOINT HandTipRight
              {
                OFFSET -5.286279 0.981399 -3.656932
                CHANNELS 3 Zrotation Xrotation Yrotation
                End Site
                {
                  OFFSET 0 0 0
                }
              }
              JOINT ThumbRight
              {
                OFFSET -4.465135 0.312399 -4.076342
                CHANNELS 3 Zrotation Xrotation Yrotation
                End Site
                {
                  OFFSET 0 0 0
                }
              }
            }
          }
        }
      }
    }
  }
  JOINT HipLeft
  {
    OFFSET -4.698349 0.669211 0.734577
    CHANNELS 3 Zrotation Xrotation Yrotation
    JOINT KneeLeft
    {
      OFFSET 1.164587 -26.192459 9.801002
      CHANNELS 3 Zrotation Xrotation Yrotation
      JOINT AnkleLeft
      {
        OFFSET 11.814858 -35.542027 12.332853
        CHANNELS 3 Zrotation Xrotation Yrotation
        JOINT FootLeft
        {
          OFFSET -1.313578 -7.151235 -1.295080
          CHANNELS 3 Zrotation Xrotation Yrotation
          End Site
          {
            OFFSET 0 0 0
          }
        }
      }
    }
  }
  JOINT HipRight
  {
    OFFSET 4.279417 0.400824 -7.094025
    CHANNELS 3 Zrotation Xrotation Yrotation
    JOINT KneeRight
    {
      OFFSET 7.354913 -29.249960 6.611558
      CHANNELS 3 Zrotation Xrotation Yrotation
      JOINT AnkleRight
      {
        OFFSET 1.464019 -34.312397 14.931766
        CHANNELS 3 Zrotation Xrotation Yrotation
        JOINT FootRight
        {
          OFFSET -2.682430 -5.350799 -5.172824
          CHANNELS 3 Zrotation Xrotation Yrotation
          End Site
          {
            OFFSET 0 0 0
          }
        }
      }
    }
  }
}
MOTION
Frames: 5
Frame Time: 0.033333
23.473296 69.226963 341.351190 0.000000 0.000000 41.088393 -0.000000 0.000000 -41.088393 -0.000000 0.000000 0.000000 -0.000000 0.000000 0.000000 0.000000 0.000000 0.000000 -0.000000 0.000000 0.000000 -0.000000 0.000000 0.000000 -0.000000 0.000000 0.000000 -0.000000 0.000000 0.000000 0.000000 0.000000 0.000000 0.000000 0.000000 0.000000 -0.000000 0.000000 0.000000 -0.000000 0.000000 0.000000 -0.000000 0.000000 0.000000 -0.000000 0.000000 0.000000 0.000000 0.000000 0.000000 0.000000 0.000000 0.000000 -0.000000 0.000000 -41.088393 -0.000000 0.000000 0.000000 -0.000000 0.000000 0.000000 0.000000 0.000000 0.000000 -0.000000 0.000000 -41.088393 -0.000000 0.000000 0.000000 -0.000000 0.000000 0.000000 0.000000 0.000000 0.000000
23.482534 69.211605 341.335495 0.016653 0.010972 41.111435 -0.019761 0.002684 -41.111436 -0.000000 0.000000 0.000000 -0.000000 0.000000 0.000000 0.000000 0.000000 0.000000 -0.000000 0.000000 0.000000 -0.000000 0.000000 0.000000 -0.000000 0.000000 0.000000 -1.693520 -3.872842 -7.398037 0.000000 0.000000 0.000000 0.000000 0.000000 0.000000 -0.000000 0.000000 0.000000 -0.000000 0.000000 0.000000 -0.000000 0.000000 0.000000 1.717133 -0.860504 1.602365 0.000000 0.000000 0.000000 0.000000 0.000000 0.000000 -0.019761 0.002684 -41.111436 -0.000000 0.000000 0.000000 2.932178 5.492574 -1.674697 0.000000 0.000000 0.000000 -0.019761 0.002684 -41.111436 0.605330 0.992623 0.301603 -2.573650 -5.120524 3.638117 0.000000 0.000000 0.000000
23.489628 69.200083 341.319825 0.027950 0.022024 41.144695 -0.035539 0.001805 -41.144700 -0.000000 0.000000 0.000000 -0.000000 0.000000 0.000000 0.000000 0.000000 0.000000 -0.000000 0.000000 0.000000 -0.000000 0.000000 0.000000 -0.000000 0.000000 0.000000 -3.659368 -7.015673 -14.120851 0.000000 0.000000 0.000000 0.000000 0.000000 0.000000 -0.000000 0.000000 0.000000 -0.000000 0.000000 0.000000 -0.328238 -0.197438 -1.377332 3.382302 -1.073559 4.767469 0.000000 0.000000 0.000000 0.000000 0.000000 0.000000 -0.035539 0.001805 -41.144700 -0.000000 0.000000 0.000000 5.241374 9.601319 -3.136010 0.000000 0.000000 0.000000 -0.035539 0.001805 -41.144700 1.128257 1.904697 0.557314 -4.383567 -10.050311 6.608776 0.000000 0.000000 0.000000
23.494580 69.192398 341.304182 0.033894 0.033159 41.188142 -0.047343 -0.002633 -41.188153 -0.000000 0.000000 0.000000 -0.000000 0.000000 0.000000 0.000000 0.000000 0.000000 -0.000000 0.000000 0.000000 -0.000000 0.000000 0.000000 0.099387 0.215692 -0.889367 -5.154013 -9.079937 -17.707365 0.000000 0.000000 0.000000 0.000000 0.000000 0.000000 -0.000000 0.000000 0.000000 -0.000000 0.000000 0.000000 -0.568653 -0.311085 -2.239170 4.544738 -1.010203 7.596225 0.000000 0.000000 0.000000 0.000000 0.000000 0.000000 -0.047343 -0.002633 -41.188153 -0.000000 0.000000 0.000000 6.888612 12.460558 -4.260732 0.000000 0.000000 0.000000 -0.047343 -0.002633 -41.188153 1.550748 2.705812 0.761099 -5.418069 -14.633340 8.954233 0.000000 0.000000 0.000000
23.497387 69.188549 341.288565 0.034488 0.044380 41.241751 -0.055190 -0.010636 -41.241770 -0.000000 0.000000 0.000000 -0.000000 0.000000 0.000000 0.000000 0.000000 0.000000 -0.000000 0.000000 0.000000 -0.000000 0.000000 0.000000 0.118528 0.342600 -0.945998 -5.641032 -9.373739 -18.758355 0.000000 0.000000 0.000000 0.000000 0.000000 0.000000 -0.000000 0.000000 0.000000 -0.000000 0.000000 0.000000 -0.887835 -0.443055 -3.306126 5.362021 -0.572632 10.798727 0.000000 0.000000 0.000000 0.000000 0.000000 0.000000 -0.055190 -0.010636 -41.241770 -0.000000 0.000000 0.000000 7.857071 14.211033 -4.977183 0.000000 0.000000 0.000000 -0.055190 -0.010636 -41.241770 1.857014 3.367490 0.908293 -5.664948 -18.774003 10.732142 0.000000 0.000000 0.000000
